# xmcd CD database file
#
# Track frame offsets:
#	150
#	18920
#	39272
#	58162
#	76987
#	92812
#	112275
#	130537
#	146525
#	159600
#
# Disc length: 2498 seconds
#
# Revision: 0
# Processed by: cddbd v1.5PL3 Copyright (c) Steve Scherf et al.
# Submitted via: CDex 1.50
#
DISCID=7e09c00a
DTITLE=日高のり子 - 日高のり子 2nd〜南風に吹かれて〜
DYEAR=1900
DGENRE=Anime
TTITLE0=風のジュエリー〜MERRY WIND〜
TTITLE1=くれよんの季節
TTITLE2=イメージ違反
TTITLE3=幸せの軌跡
TTITLE4=シンメトリィ
TTITLE5=ホワイト・ドリーム
TTITLE6=Inside of You
TTITLE7=トライアングル
TTITLE8=ブルーストロベリーはお好き?
TTITLE9=一楽章〜FOR LOVE〜
EXTD=
EXTT0=
EXTT1=
EXTT2=
EXTT3=
EXTT4=
EXTT5=
EXTT6=
EXTT7=
EXTT8=
EXTT9=
PLAYORDER=
